<svg style="position: absolute; width: 0; height: 0;" width="0" height="0" version="1.1" xmlns="http://www.w3.org/2000/svg" xmlns:xlink="http://www.w3.org/1999/xlink">
<defs>
<symbol id="icon-music" viewBox="0 0 27 32">
<title>music</title>
<path class="path1" d="M27.429 4v20q0 0.893-0.607 1.589t-1.536 1.080-1.848 0.571-1.723 0.188-1.723-0.188-1.848-0.571-1.536-1.080-0.607-1.589 0.607-1.589 1.536-1.080 1.848-0.571 1.723-0.188q1.875 0 3.429 0.696v-9.589l-13.714 4.232v12.661q0 0.893-0.607 1.589t-1.536 1.080-1.848 0.571-1.723 0.188-1.723-0.188-1.848-0.571-1.536-1.080-0.607-1.589 0.607-1.589 1.536-1.080 1.848-0.571 1.723-0.188q1.875 0 3.429 0.696v-17.268q0-0.554 0.339-1.009t0.875-0.634l14.857-4.571q0.214-0.071 0.5-0.071 0.714 0 1.214 0.5t0.5 1.214z"></path>
</symbol>
<symbol id="icon-search" viewBox="0 0 30 32">
<title>search</title>
<path class="path1" d="M20.571 14.857q0-3.304-2.348-5.652t-5.652-2.348-5.652 2.348-2.348 5.652 2.348 5.652 5.652 2.348 5.652-2.348 2.348-5.652zM29.714 29.714q0 0.929-0.679 1.607t-1.607 0.679q-0.964 0-1.607-0.679l-6.125-6.107q-3.196 2.214-7.125 2.214-2.554 0-4.884-0.991t-4.018-2.679-2.679-4.018-0.991-4.884 0.991-4.884 2.679-4.018 4.018-2.679 4.884-0.991 4.884 0.991 4.018 2.679 2.679 4.018 0.991 4.884q0 3.929-2.214 7.125l6.125 6.125q0.661 0.661 0.661 1.607z"></path>
</symbol>
<symbol id="icon-repeat" viewBox="0 0 27 32">
<title>repeat</title>
<path class="path1" d="M27.429 4.571v8q0 0.464-0.339 0.804t-0.804 0.339h-8q-0.75 0-1.054-0.714-0.304-0.696 0.25-1.232l2.464-2.464q-2.643-2.446-6.232-2.446-1.857 0-3.545 0.723t-2.92 1.955-1.955 2.92-0.723 3.545 0.723 3.545 1.955 2.92 2.92 1.955 3.545 0.723q2.125 0 4.018-0.929t3.196-2.625q0.125-0.179 0.411-0.214 0.25 0 0.446 0.161l2.446 2.464q0.161 0.143 0.17 0.366t-0.134 0.402q-1.946 2.357-4.714 3.652t-5.839 1.295q-2.786 0-5.321-1.089t-4.375-2.929-2.929-4.375-1.089-5.321 1.089-5.321 2.929-4.375 4.375-2.929 5.321-1.089q2.625 0 5.080 0.991t4.366 2.795l2.321-2.304q0.518-0.554 1.25-0.25 0.696 0.304 0.696 1.054z"></path>
</symbol>
<symbol id="icon-flag" viewBox="0 0 33 32">
<title>flag</title>
<path class="path1" d="M5.714 4.571q0 1.286-1.143 1.964v22.607q0 0.232-0.17 0.402t-0.402 0.17h-1.143q-0.232 0-0.402-0.17t-0.17-0.402v-22.607q-1.143-0.679-1.143-1.964 0-0.946 0.67-1.616t1.616-0.67 1.616 0.67 0.67 1.616zM32 5.714v13.625q0 0.446-0.223 0.688t-0.705 0.491q-3.839 2.071-6.589 2.071-1.089 0-2.205-0.393t-1.938-0.857-2.063-0.857-2.545-0.393q-3.429 0-8.286 2.607-0.304 0.161-0.589 0.161-0.464 0-0.804-0.339t-0.339-0.804v-13.25q0-0.571 0.554-0.982 0.375-0.25 1.411-0.768 4.214-2.143 7.518-2.143 1.911 0 3.571 0.518t3.911 1.571q0.679 0.339 1.571 0.339 0.964 0 2.098-0.375t1.964-0.839 1.571-0.839 0.973-0.375q0.464 0 0.804 0.339t0.339 0.804z"></path>
</symbol>
<symbol id="icon-headphones" viewBox="0 0 30 32">
<title>headphones</title>
<path class="path1" d="M29.714 15.821q0 2.964-1.071 5.607l-0.357 0.875-3.304 0.589q-0.393 1.482-1.616 2.438t-2.795 0.955v0.571q0 0.25-0.161 0.411t-0.411 0.161h-1.143q-0.25 0-0.411-0.161t-0.161-0.411v-10.286q0-0.25 0.161-0.411t0.411-0.161h1.143q0.25 0 0.411 0.161t0.161 0.411v0.571q1.268 0 2.321 0.634t1.661 1.705l1.214-0.214q0.518-1.696 0.518-3.446 0-2.643-1.571-4.982t-4.223-3.732-5.634-1.393-5.634 1.393-4.223 3.732-1.571 4.982q0 1.75 0.518 3.446l1.214 0.214q0.607-1.071 1.661-1.705t2.321-0.634v-0.571q0-0.25 0.161-0.411t0.411-0.161h1.143q0.25 0 0.411 0.161t0.161 0.411v10.286q0 0.25-0.161 0.411t-0.411 0.161h-1.143q-0.25 0-0.411-0.161t-0.161-0.411v-0.571q-1.571 0-2.795-0.955t-1.616-2.438l-3.304-0.589-0.357-0.875q-1.071-2.643-1.071-5.607 0-2.696 1.196-5.196t3.196-4.33 4.75-2.92 5.714-1.089 5.714 1.089 4.75 2.92 3.196 4.33 1.196 5.196z"></path>
</symbol>
<symbol id="icon-volume-off" viewBox="0 0 14 32">
<title>volume-off</title>
<path class="path1" d="M13.714 6.286v19.429q0 0.464-0.339 0.804t-0.804 0.339-0.804-0.339l-5.946-5.946h-4.679q-0.464 0-0.804-0.339t-0.339-0.804v-6.857q0-0.464 0.339-0.804t0.804-0.339h4.679l5.946-5.946q0.339-0.339 0.804-0.339t0.804 0.339 0.339 0.804z"></path>
</symbol>
<symbol id="icon-volume-down" viewBox="0 0 21 32">
<title>volume-down</title>
<path class="path1" d="M13.714 6.286v19.429q0 0.464-0.339 0.804t-0.804 0.339-0.804-0.339l-5.946-5.946h-4.679q-0.464 0-0.804-0.339t-0.339-0.804v-6.857q0-0.464 0.339-0.804t0.804-0.339h4.679l5.946-5.946q0.339-0.339 0.804-0.339t0.804 0.339 0.339 0.804zM20.571 16q0 1.357-0.759 2.527t-2.009 1.67q-0.179 0.089-0.446 0.089-0.464 0-0.804-0.33t-0.339-0.813q0-0.375 0.214-0.634t0.518-0.446 0.607-0.411 0.518-0.634 0.214-1.018-0.214-1.018-0.518-0.634-0.607-0.411-0.518-0.446-0.214-0.634q0-0.482 0.339-0.813t0.804-0.33q0.268 0 0.446 0.089 1.25 0.482 2.009 1.661t0.759 2.536z"></path>
</symbol>
<symbol id="icon-volume-up" viewBox="0 0 30 32">
<title>volume-up</title>
<path class="path1" d="M13.714 6.286v19.429q0 0.464-0.339 0.804t-0.804 0.339-0.804-0.339l-5.946-5.946h-4.679q-0.464 0-0.804-0.339t-0.339-0.804v-6.857q0-0.464 0.339-0.804t0.804-0.339h4.679l5.946-5.946q0.339-0.339 0.804-0.339t0.804 0.339 0.339 0.804zM20.571 16q0 1.357-0.759 2.527t-2.009 1.67q-0.179 0.089-0.446 0.089-0.464 0-0.804-0.33t-0.339-0.813q0-0.375 0.214-0.634t0.518-0.446 0.607-0.411 0.518-0.634 0.214-1.018-0.214-1.018-0.518-0.634-0.607-0.411-0.518-0.446-0.214-0.634q0-0.482 0.339-0.813t0.804-0.33q0.268 0 0.446 0.089 1.25 0.482 2.009 1.661t0.759 2.536zM25.143 16q0 2.732-1.518 5.045t-4.018 3.366q-0.232 0.089-0.446 0.089-0.482 0-0.821-0.339t-0.339-0.804q0-0.696 0.696-1.054 1-0.518 1.357-0.786 1.321-0.964 2.063-2.42t0.741-3.098-0.741-3.098-2.063-2.42q-0.357-0.268-1.357-0.786-0.696-0.357-0.696-1.054 0-0.464 0.339-0.804t0.804-0.339q0.232 0 0.464 0.089 2.5 1.054 4.018 3.366t1.518 5.045zM29.714 16q0 4.107-2.268 7.545t-6.036 5.063q-0.232 0.089-0.464 0.089-0.464 0-0.804-0.339t-0.339-0.804q0-0.643 0.696-1.054 0.125-0.071 0.402-0.188t0.402-0.188q0.821-0.446 1.464-0.911 2.196-1.625 3.429-4.054t1.232-5.161-1.232-5.161-3.429-4.054q-0.643-0.464-1.464-0.911-0.125-0.071-0.402-0.188t-0.402-0.188q-0.696-0.411-0.696-1.054 0-0.464 0.339-0.804t0.804-0.339q0.232 0 0.464 0.089 3.768 1.625 6.036 5.063t2.268 7.545z"></path>
</symbol>
<symbol id="icon-step-backward" viewBox="0 0 18 32">
<title>step-backward</title>
<path class="path1" d="M17.482 2.518q0.339-0.339 0.571-0.232t0.232 0.571v26.286q0 0.464-0.232 0.571t-0.571-0.232l-12.679-12.679q-0.161-0.161-0.232-0.339v12.107q0 0.464-0.339 0.804t-0.804 0.339h-2.286q-0.464 0-0.804-0.339t-0.339-0.804v-25.143q0-0.464 0.339-0.804t0.804-0.339h2.286q0.464 0 0.804 0.339t0.339 0.804v12.107q0.071-0.196 0.232-0.339z"></path>
</symbol>
<symbol id="icon-fast-backward" viewBox="0 0 32 32">
<title>fast-backward</title>
<path class="path1" d="M31.196 2.518q0.339-0.339 0.571-0.232t0.232 0.571v26.286q0 0.464-0.232 0.571t-0.571-0.232l-12.679-12.679q-0.161-0.161-0.232-0.339v12.679q0 0.464-0.232 0.571t-0.571-0.232l-12.679-12.679q-0.161-0.161-0.232-0.339v12.107q0 0.464-0.339 0.804t-0.804 0.339h-2.286q-0.464 0-0.804-0.339t-0.339-0.804v-25.143q0-0.464 0.339-0.804t0.804-0.339h2.286q0.464 0 0.804 0.339t0.339 0.804v12.107q0.071-0.196 0.232-0.339l12.679-12.679q0.339-0.339 0.571-0.232t0.232 0.571v12.679q0.071-0.196 0.232-0.339z"></path>
</symbol>
<symbol id="icon-backward" viewBox="0 0 32 32">
<title>backward</title>
<path class="path1" d="M28.911 2.518q0.339-0.339 0.571-0.232t0.232 0.571v26.286q0 0.464-0.232 0.571t-0.571-0.232l-12.679-12.679q-0.143-0.161-0.232-0.339v12.679q0 0.464-0.232 0.571t-0.571-0.232l-12.679-12.679q-0.339-0.339-0.339-0.804t0.339-0.804l12.679-12.679q0.339-0.339 0.571-0.232t0.232 0.571v12.679q0.089-0.196 0.232-0.339z"></path>
</symbol>
<symbol id="icon-play" viewBox="0 0 25 32">
<title>play</title>
<path class="path1" d="M24.714 16.554l-23.714 13.179q-0.411 0.232-0.705 0.054t-0.295-0.643v-26.286q0-0.464 0.295-0.643t0.705 0.054l23.714 13.179q0.411 0.232 0.411 0.554t-0.411 0.554z"></path>
</symbol>
<symbol id="icon-pause" viewBox="0 0 27 32">
<title>pause</title>
<path class="path1" d="M27.429 3.429v25.143q0 0.464-0.339 0.804t-0.804 0.339h-9.143q-0.464 0-0.804-0.339t-0.339-0.804v-25.143q0-0.464 0.339-0.804t0.804-0.339h9.143q0.464 0 0.804 0.339t0.339 0.804zM11.429 3.429v25.143q0 0.464-0.339 0.804t-0.804 0.339h-9.143q-0.464 0-0.804-0.339t-0.339-0.804v-25.143q0-0.464 0.339-0.804t0.804-0.339h9.143q0.464 0 0.804 0.339t0.339 0.804z"></path>
</symbol>
<symbol id="icon-stop" viewBox="0 0 27 32">
<title>stop</title>
<path class="path1" d="M27.429 3.429v25.143q0 0.464-0.339 0.804t-0.804 0.339h-25.143q-0.464 0-0.804-0.339t-0.339-0.804v-25.143q0-0.464 0.339-0.804t0.804-0.339h25.143q0.464 0 0.804 0.339t0.339 0.804z"></path>
</symbol>
<symbol id="icon-forward" viewBox="0 0 28 32">
<title>forward</title>
<path class="path1" d="M0.804 29.482q-0.339 0.339-0.571 0.232t-0.232-0.571v-26.286q0-0.464 0.232-0.571t0.571 0.232l12.679 12.679q0.143 0.143 0.232 0.339v-12.679q0-0.464 0.232-0.571t0.571 0.232l12.679 12.679q0.339 0.339 0.339 0.804t-0.339 0.804l-12.679 12.679q-0.339 0.339-0.571 0.232t-0.232-0.571v-12.679q-0.089 0.179-0.232 0.339z"></path>
</symbol>
<symbol id="icon-fast-forward" viewBox="0 0 32 32">
<title>fast-forward</title>
<path class="path1" d="M0.804 29.482q-0.339 0.339-0.571 0.232t-0.232-0.571v-26.286q0-0.464 0.232-0.571t0.571 0.232l12.679 12.679q0.143 0.143 0.232 0.339v-12.679q0-0.464 0.232-0.571t0.571 0.232l12.679 12.679q0.143 0.143 0.232 0.339v-12.107q0-0.464 0.339-0.804t0.804-0.339h2.286q0.464 0 0.804 0.339t0.339 0.804v25.143q0 0.464-0.339 0.804t-0.804 0.339h-2.286q-0.464 0-0.804-0.339t-0.339-0.804v-12.107q-0.089 0.179-0.232 0.339l-12.679 12.679q-0.339 0.339-0.571 0.232t-0.232-0.571v-12.679q-0.089 0.179-0.232 0.339z"></path>
</symbol>
<symbol id="icon-step-forward" viewBox="0 0 18 32">
<title>step-forward</title>
<path class="path1" d="M0.804 29.482q-0.339 0.339-0.571 0.232t-0.232-0.571v-26.286q0-0.464 0.232-0.571t0.571 0.232l12.679 12.679q0.143 0.143 0.232 0.339v-12.107q0-0.464 0.339-0.804t0.804-0.339h2.286q0.464 0 0.804 0.339t0.339 0.804v25.143q0 0.464-0.339 0.804t-0.804 0.339h-2.286q-0.464 0-0.804-0.339t-0.339-0.804v-12.107q-0.089 0.179-0.232 0.339z"></path>
</symbol>
<symbol id="icon-chevron-left" viewBox="0 0 24 32">
<title>chevron-left</title>
<path class="path1" d="M20.911 5.375l-9.482 9.482 9.482 9.482q0.339 0.339 0.339 0.804t-0.339 0.804l-2.964 2.964q-0.339 0.339-0.804 0.339t-0.804-0.339l-13.25-13.25q-0.339-0.339-0.339-0.804t0.339-0.804l13.25-13.25q0.339-0.339 0.804-0.339t0.804 0.339l2.964 2.964q0.339 0.339 0.339 0.804t-0.339 0.804z"></path>
</symbol>
<symbol id="icon-chevron-right" viewBox="0 0 22 32">
<title>chevron-right</title>
<path class="path1" d="M19.768 15.661l-13.25 13.25q-0.339 0.339-0.804 0.339t-0.804-0.339l-2.964-2.964q-0.339-0.339-0.339-0.804t0.339-0.804l9.482-9.482-9.482-9.482q-0.339-0.339-0.339-0.804t0.339-0.804l2.964-2.964q0.339-0.339 0.804-0.339t0.804 0.339l13.25 13.25q0.339 0.339 0.339 0.804t-0.339 0.804z"></path>
</symbol>
<symbol id="icon-plus" viewBox="0 0 25 32">
<title>plus</title>
<path class="path1" d="M25.143 13.143v3.429q0 0.714-0.5 1.214t-1.214 0.5h-7.429v7.429q0 0.714-0.5 1.214t-1.214 0.5h-3.429q-0.714 0-1.214-0.5t-0.5-1.214v-7.429h-7.429q-0.714 0-1.214-0.5t-0.5-1.214v-3.429q0-0.714 0.5-1.214t1.214-0.5h7.429v-7.429q0-0.714 0.5-1.214t1.214-0.5h3.429q0.714 0 1.214 0.5t0.5 1.214v7.429h7.429q0.714 0 1.214 0.5t0.5 1.214z"></path>
</symbol>
<symbol id="icon-minus" viewBox="0 0 25 32">
<title>minus</title>
<path class="path1" d="M25.143 13.143v3.429q0 0.714-0.5 1.214t-1.214 0.5h-21.714q-0.714 0-1.214-0.5t-0.5-1.214v-3.429q0-0.714 0.5-1.214t1.214-0.5h21.714q0.714 0 1.214 0.5t0.5 1.214z"></path>
</symbol>
<symbol id="icon-asterisk" viewBox="0 0 30 32">
<title>asterisk</title>
<path class="path1" d="M26.464 18.75q0.821 0.464 1.063 1.384t-0.223 1.741l-1.143 1.964q-0.464 0.821-1.384 1.063t-1.741-0.223l-4.75-2.732v5.482q0 0.929-0.679 1.607t-1.607 0.679h-2.286q-0.929 0-1.607-0.679t-0.679-1.607v-5.482l-4.75 2.732q-0.821 0.464-1.741 0.223t-1.384-1.063l-1.143-1.964q-0.464-0.821-0.223-1.741t1.063-1.384l4.75-2.75-4.75-2.75q-0.821-0.464-1.063-1.384t0.223-1.741l1.143-1.964q0.464-0.821 1.384-1.063t1.741 0.223l4.75 2.732v-5.482q0-0.929 0.679-1.607t1.607-0.679h2.286q0.929 0 1.607 0.679t0.679 1.607v5.482l4.75-2.732q0.821-0.464 1.741-0.223t1.384 1.063l1.143 1.964q0.464 0.821 0.223 1.741t-1.063 1.384l-4.75 2.75z"></path>
</symbol>
<symbol id="icon-exclamation-triangle" viewBox="0 0 32 32">
<title>exclamation-triangle</title>
<path class="path1" d="M18.286 24.554v-3.393q0-0.25-0.17-0.42t-0.402-0.17h-3.429q-0.232 0-0.402 0.17t-0.17 0.42v3.393q0 0.25 0.17 0.42t0.402 0.17h3.429q0.232 0 0.402-0.17t0.17-0.42zM18.25 17.875l0.321-8.196q0-0.214-0.179-0.339-0.232-0.196-0.429-0.196h-3.929q-0.196 0-0.429 0.196-0.179 0.125-0.179 0.375l0.304 8.161q0 0.179 0.179 0.295t0.429 0.116h3.304q0.25 0 0.42-0.116t0.188-0.295zM18 1.196l13.714 25.143q0.625 1.125-0.036 2.25-0.304 0.518-0.83 0.821t-1.134 0.304h-27.429q-0.607 0-1.134-0.304t-0.83-0.821q-0.661-1.125-0.036-2.25l13.714-25.143q0.304-0.554 0.839-0.875t1.161-0.321 1.161 0.321 0.839 0.875z"></path>
</symbol>
<symbol id="icon-comment" viewBox="0 0 32 32">
<title>comment</title>
<path class="path1" d="M32 16q0 3.107-2.143 5.741t-5.821 4.161-8.036 1.527q-1.25 0-2.589-0.143-3.536 3.125-8.214 4.321-0.875 0.25-2.036 0.393-0.304 0.036-0.545-0.161t-0.313-0.518v-0.018q-0.054-0.071-0.009-0.214t0.036-0.179 0.080-0.17l0.107-0.161t0.125-0.152 0.143-0.161q0.125-0.143 0.554-0.616t0.616-0.679 0.554-0.705 0.58-0.911 0.482-1.054 0.464-1.357q-2.804-1.589-4.42-3.929t-1.616-5.018q0-2.321 1.268-4.438t3.411-3.652 5.107-2.438 6.214-0.902q4.357 0 8.036 1.527t5.821 4.161 2.143 5.741z"></path>
</symbol>
<symbol id="icon-thumbs-o-up" viewBox="0 0 27 32">
<title>thumbs-o-up</title>
<path class="path1" d="M4.571 24q0-0.464-0.339-0.804t-0.804-0.339-0.804 0.339-0.339 0.804 0.339 0.804 0.804 0.339 0.804-0.339 0.339-0.804zM25.143 13.714q0-0.911-0.696-1.598t-1.589-0.688h-6.286q0-1.036 0.857-2.848t0.857-2.866q0-1.75-0.571-2.589t-2.286-0.839q-0.464 0.464-0.679 1.518t-0.545 2.241-1.063 1.955q-0.393 0.411-1.375 1.625-0.071 0.089-0.411 0.536t-0.563 0.732-0.616 0.759-0.714 0.786-0.688 0.634-0.714 0.482-0.634 0.161h-0.571v11.429h0.571q0.232 0 0.563 0.054t0.589 0.116 0.679 0.196 0.625 0.205 0.634 0.223 0.518 0.188q3.768 1.304 6.107 1.304h2.161q3.429 0 3.429-2.982 0-0.464-0.089-1 0.536-0.286 0.848-0.938t0.313-1.313-0.321-1.232q0.946-0.893 0.946-2.125 0-0.446-0.179-0.991t-0.446-0.848q0.571-0.018 0.955-0.839t0.384-1.446zM27.429 13.696q0 1.589-0.875 2.911 0.161 0.589 0.161 1.232 0 1.375-0.679 2.571 0.054 0.375 0.054 0.768 0 1.804-1.071 3.179 0.018 2.482-1.518 3.92t-4.054 1.438h-2.304q-1.714 0-3.384-0.402t-3.866-1.17q-2.071-0.714-2.464-0.714h-5.143q-0.946 0-1.616-0.67t-0.67-1.616v-11.429q0-0.946 0.67-1.616t1.616-0.67h4.893q0.643-0.429 2.446-2.768 1.036-1.339 1.911-2.286 0.429-0.446 0.634-1.527t0.545-2.259 1.107-1.929q0.696-0.661 1.607-0.661 1.5 0 2.696 0.58t1.821 1.813 0.625 3.321q0 1.661-0.857 3.429h3.143q1.857 0 3.214 1.357t1.357 3.196z"></path>
</symbol>
<symbol id="icon-thumbs-o-down" viewBox="0 0 27 32">
<title>thumbs-o-down</title>
<path class="path1" d="M4.571 8q0-0.464-0.339-0.804t-0.804-0.339-0.804 0.339-0.339 0.804 0.339 0.804 0.804 0.339 0.804-0.339 0.339-0.804zM25.143 18.286q0-0.625-0.384-1.446t-0.955-0.839q0.268-0.304 0.446-0.848t0.179-0.991q0-1.232-0.946-2.125 0.321-0.571 0.321-1.232t-0.313-1.313-0.848-0.938q0.089-0.536 0.089-1 0-1.518-0.875-2.25t-2.429-0.732h-2.286q-2.339 0-6.107 1.304-0.089 0.036-0.518 0.188t-0.634 0.223-0.625 0.205-0.679 0.196-0.589 0.116-0.563 0.054h-0.571v11.429h0.571q0.286 0 0.634 0.161t0.714 0.482 0.688 0.634 0.714 0.786 0.616 0.759 0.563 0.732 0.411 0.536q0.982 1.214 1.375 1.625 0.732 0.768 1.063 1.955t0.545 2.241 0.679 1.518q1.714 0 2.286-0.839t0.571-2.589q0-1.054-0.857-2.866t-0.857-2.848h6.286q0.893 0 1.589-0.688t0.696-1.598zM27.429 18.304q0 1.839-1.357 3.196t-3.214 1.357h-3.143q0.857 1.768 0.857 3.429 0 2.107-0.625 3.321-0.625 1.232-1.821 1.813t-2.696 0.58q-0.911 0-1.607-0.661-0.607-0.589-0.964-1.464t-0.455-1.616-0.313-1.509-0.554-1.143q-0.857-0.893-1.911-2.268-1.804-2.339-2.446-2.768h-4.893q-0.946 0-1.616-0.67t-0.67-1.616v-11.429q0-0.946 0.67-1.616t1.616-0.67h5.143q0.393 0 2.464-0.714 2.286-0.786 3.982-1.179t3.571-0.393h2q2.5 0 4.045 1.411t1.527 3.857v0.089q1.071 1.375 1.071 3.179 0 0.393-0.054 0.768 0.679 1.196 0.679 2.571 0 0.643-0.161 1.232 0.875 1.321 0.875 2.911z"></path>
</symbol>
<symbol id="icon-envelope" viewBox="0 0 32 32">
<title>envelope</title>
<path class="path1" d="M32 12.679v14.179q0 1.179-0.839 2.018t-2.018 0.839h-26.286q-1.179 0-2.018-0.839t-0.839-2.018v-14.179q0.786 0.875 1.804 1.554 6.464 4.393 8.875 6.161 1.018 0.75 1.652 1.17t1.688 0.857 1.964 0.438h0.036q0.911 0 1.964-0.438t1.688-0.857 1.652-1.17q3.036-2.196 8.893-6.161 1.018-0.696 1.786-1.554zM32 7.429q0 1.411-0.875 2.696t-2.179 2.196q-6.714 4.661-8.357 5.804-0.179 0.125-0.759 0.545t-0.964 0.679-0.929 0.58-1.027 0.482-0.893 0.161h-0.036q-0.411 0-0.893-0.161t-1.027-0.482-0.929-0.58-0.964-0.679-0.759-0.545q-1.625-1.143-4.679-3.259t-3.661-2.545q-1.107-0.75-2.089-2.063t-0.982-2.438q0-1.393 0.741-2.321t2.116-0.929h26.286q1.161 0 2.009 0.839t0.848 2.018z"></path>
</symbol>
</defs>
</svg>
